<?xml version="1.0" encoding="utf-8"?>
<svg version="1.1" x="0px" y="0px" viewBox="206 206 101.195 102.645" enable-background="new 206 206 100 100" xmlns="http://www.w3.org/2000/svg">
  <g>
    <polygon points="282.986,276.239 282.986,282.985 282.986,289.732 276.239,289.732 269.492,289.732 262.746,289.732 256,289.732    249.254,289.732 242.507,289.732 235.76,289.732 229.014,289.732 229.014,282.985 229.014,276.239 222.268,276.239    222.268,282.985 222.268,289.732 222.268,296.478 229.014,296.478 235.76,296.478 242.507,296.478 249.254,296.478 256,296.478    262.746,296.478 269.492,296.478 276.239,296.478 282.986,296.478 289.732,296.478 289.732,289.732 289.732,282.985    289.732,276.239  "/>
    <rect x="276.239" y="269.493" width="6.747" height="6.746"/>
    <rect x="269.492" y="262.746" width="6.746" height="6.747"/>
    <polygon points="256,262.746 262.746,262.746 269.492,262.746 269.492,256 262.746,256 262.746,249.253 256,249.253    249.254,249.253 249.254,256 242.507,256 242.507,262.746 249.254,262.746  "/>
    <rect x="229.014" y="269.493" width="6.746" height="6.746"/>
    <rect x="235.76" y="262.746" width="6.747" height="6.747"/>
    <rect x="242.507" y="242.507" width="6.747" height="6.747"/>
    <polygon points="242.507,229.014 235.76,229.014 235.76,235.76 235.76,242.507 242.507,242.507 242.507,235.76  "/>
    <rect x="242.507" y="222.268" width="6.747" height="6.747"/>
    <polygon points="262.746,222.268 262.746,215.521 256,215.521 249.254,215.521 249.254,222.268 256,222.268  "/>
    <rect x="262.746" y="222.268" width="6.746" height="6.747"/>
    <polygon points="269.492,242.507 276.239,242.507 276.239,235.76 276.239,229.014 269.492,229.014 269.492,235.76  "/>
    <rect x="262.746" y="242.507" width="6.746" height="6.747"/>
  </g>
</svg>